<?xml version="1.0" standalone="no" ?>
<!DOCTYPE svg PUBLIC "-//W3C//DTD SVG 20010904//EN"
  "http://www.w3.org/TR/2001/REC-SVG-20010904/DTD/svg10.dtd">
<svg
  version="1.0"
  xmlns="http://www.w3.org/2000/svg"
  width="1155.000000pt"
  height="1280.000000pt"
  viewBox="0 0 1155.000000 1280.000000"
  preserveAspectRatio="xMidYMid meet"
>
<g
    transform="translate(0.000000,1280.000000) scale(0.100000,-0.100000)"
    fill="#4f4f52"
    stroke="none"
  >
<path
      d="M5393 12777 c-83 -35 -5133 -2901 -5130 -2910 1 -5 1299 -626 2882
-1379 2356 -1121 2889 -1371 2931 -1375 41 -4 60 0 105 22 66 33 4987 3139
5031 3176 19 15 29 31 26 40 -5 13 -5518 2363 -5681 2421 -93 33 -97 33 -164
5z m162 -562 c208 -37 371 -107 478 -206 220 -201 150 -447 -173 -609 -402
-201 -1012 -176 -1335 54 -73 53 -106 90 -142 160 -36 69 -37 169 -4 238 88
183 350 324 691 374 119 17 361 12 485 -11z m1892 -804 c407 -90 622 -310 533
-545 -18 -46 -40 -77 -95 -132 -309 -309 -1094 -355 -1495 -89 -204 136 -249
320 -120 491 99 131 346 249 605 289 133 21 451 13 572 -14z m1888 -819 c421
-96 632 -330 515 -569 -85 -171 -358 -316 -677 -358 -285 -37 -577 -1 -788 99
-300 142 -388 358 -228 562 94 119 322 229 573 274 145 27 471 22 605 -8z
m-6560 -20 c427 -96 644 -331 524 -570 -65 -130 -247 -254 -464 -316 -263 -75
-606 -75 -855 0 -355 107 -526 328 -420 541 85 170 333 305 657 358 128 21
437 13 558 -13z m1797 -856 c202 -36 390 -120 490 -217 197 -193 127 -435
-169 -587 -192 -98 -400 -144 -653 -144 -236 1 -412 37 -587 122 -175 85 -270
196 -281 325 -20 254 291 460 788 519 69 8 327 -3 412 -18z m1848 -847 c41 -6
111 -20 155 -31 513 -135 649 -496 278 -739 -265 -173 -715 -233 -1078 -144
-182 44 -301 102 -399 194 -171 162 -152 367 48 517 234 176 615 254 996 203z"
    />
<path
      d="M11434 9932 c-44 -27 -882 -556 -1864 -1177 -982 -620 -2095 -1324
-2475 -1563 -379 -240 -709 -451 -733 -470 -23 -19 -45 -45 -48 -57 -7 -27 84
-6453 92 -6563 4 -47 11 -75 19 -78 7 -3 487 311 1066 697 580 386 1711 1140
2514 1674 1129 751 1470 982 1504 1020 41 48 43 52 37 100 -3 28 -9 1491 -12
3253 -4 1762 -10 3205 -14 3207 -4 3 -43 -17 -86 -43z m-354 -1168 c144 -65
226 -213 237 -425 17 -327 -147 -712 -411 -966 -103 -100 -180 -154 -275 -194
-233 -97 -433 -31 -530 175 -40 85 -55 163 -54 291 2 421 297 914 650 1086
149 73 272 83 383 33z m-1523 -3009 c116 -35 202 -128 249 -270 23 -70 27 -97
27 -210 0 -242 -76 -478 -230 -709 -317 -476 -797 -604 -975 -259 -54 105 -63
150 -62 313 0 125 4 160 27 249 146 557 617 989 964 886z m-1582 -3154 c107
-53 176 -151 211 -298 24 -102 14 -317 -20 -442 -99 -356 -326 -665 -598 -810
-107 -58 -174 -74 -277 -69 -105 5 -164 32 -233 106 -87 93 -128 216 -128 387
0 404 257 866 595 1070 166 99 322 119 450 56z"
    />
<path
      d="M0 9458 c0 -18 4 -89 10 -158 6 -69 22 -485 35 -925 14 -440 30 -933
35 -1095 5 -162 19 -576 30 -920 11 -344 25 -762 30 -930 21 -639 50 -1548 60
-1860 15 -511 18 -549 44 -574 11 -12 1294 -687 2851 -1500 1557 -813 2836
-1483 2843 -1489 9 -7 16 -7 23 0 8 8 -2 946 -35 3190 -25 1748 -49 3247 -52
3332 -6 148 -7 154 -33 182 -18 20 -488 248 -1611 782 -872 415 -2173 1034
-2891 1376 -718 341 -1314 621 -1323 621 -11 0 -16 -9 -16 -32z m880 -1013
c340 -123 645 -518 725 -936 20 -105 20 -296 0 -374 -53 -207 -187 -332 -369
-343 -98 -6 -167 9 -274 59 -114 53 -190 109 -299 222 -414 428 -507 1111
-183 1338 107 75 252 87 400 34z m3657 -1784 c112 -38 221 -109 327 -211 200
-193 344 -452 401 -725 22 -105 22 -298 0 -380 -68 -252 -255 -379 -490 -330
-178 37 -352 150 -498 323 -213 254 -332 554 -330 837 1 272 131 472 334 515
66 14 164 2 256 -29z m-1785 -1178 c380 -149 705 -637 725 -1088 9 -207 -42
-363 -152 -463 -200 -183 -520 -111 -804 183 -464 480 -513 1235 -90 1389 73
27 224 17 321 -21z m-1834 -1119 c153 -31 300 -121 448 -276 146 -152 259
-341 322 -538 43 -135 55 -209 56 -340 1 -177 -41 -304 -130 -400 -63 -68
-116 -97 -205 -116 -192 -40 -410 57 -621 274 -187 193 -315 439 -364 700 -22
117 -15 322 14 403 59 166 157 264 293 293 84 19 96 19 187 0z m3701 -1877
c123 -43 224 -111 341 -227 186 -184 309 -403 377 -668 23 -93 28 -324 9 -406
-49 -207 -187 -340 -369 -353 -238 -17 -522 166 -722 466 -334 502 -301 1087
68 1207 67 22 207 13 296 -19z"
    />
</g>
</svg>
